<svg version="1.1" id="Layer_1" xmlns="http://www.w3.org/2000/svg" xmlns:xlink="http://www.w3.org/1999/xlink" x="0px" y="0px"
	 width="100%" viewBox="0 0 320 320" enable-background="new 0 0 320 320" xml:space="preserve">
<path fill="#000000" opacity="1.000000" stroke="none" 
	d="
M148.223236,281.127747 
	C142.368607,287.144836 136.030624,291.013367 127.551247,290.370605 
	C119.484932,289.759125 108.777321,280.364227 107.659615,272.427094 
	C107.254837,269.552734 105.276062,267.498688 103.193855,266.912720 
	C97.922249,265.429321 94.996849,260.644165 89.931320,258.774963 
	C79.540604,254.940735 71.276657,246.925812 60.928188,242.974045 
	C56.415359,241.250732 51.345886,242.555252 46.532112,242.417709 
	C40.179821,242.236221 32.172855,236.949677 29.787952,231.104889 
	C28.126858,227.033997 26.196884,223.201050 26.499403,218.412933 
	C26.820023,213.338333 28.865967,209.221848 31.720671,205.478455 
	C34.164398,202.274002 35.638390,198.969254 35.637329,194.981613 
	C35.628841,162.985229 35.633884,130.988831 35.591232,98.992493 
	C35.585358,94.586243 34.426022,90.770561 31.306053,87.190323 
	C24.235516,79.076721 24.952080,66.308777 32.339203,58.581474 
	C42.296524,48.165611 56.955906,47.376251 67.877602,56.825768 
	C70.166077,58.805767 72.479851,59.771282 75.519493,59.688148 
	C81.680862,59.519627 87.884544,59.230484 94.006645,59.748718 
	C100.510773,60.299294 105.898796,57.840923 111.240616,54.896420 
	C116.417061,52.043060 129.514801,53.465794 133.737167,57.545151 
	C138.750046,62.388268 142.729675,67.696785 143.538391,75.052460 
	C143.937775,78.685020 147.430023,80.954964 150.168533,82.724030 
	C154.611923,85.594452 159.723343,87.431908 164.558533,89.693108 
	C165.152145,89.970718 166.049698,89.990166 166.353348,90.437073 
	C170.699219,96.833221 177.314865,95.535667 183.548187,95.664551 
	C187.640442,95.749161 191.953857,94.806679 195.356796,97.965599 
	C199.622086,95.036636 204.664764,94.747162 209.171188,92.919174 
	C214.181091,90.886963 219.648331,89.905174 224.576859,87.423386 
	C227.607437,85.897316 231.141800,85.609741 234.308884,84.620689 
	C238.559662,83.293221 242.557999,80.873550 247.273911,80.438438 
	C251.008392,80.093864 254.612106,77.999847 258.231934,76.748070 
	C260.394470,76.000237 262.283844,71.373581 262.389923,68.421982 
	C262.599701,62.585411 266.724701,60.017128 270.268341,57.067623 
	C275.817780,52.448586 282.912781,52.763206 289.236450,53.921627 
	C294.609406,54.905895 298.366425,60.065739 300.838013,64.716118 
	C302.536560,67.912056 304.744476,71.298592 304.531311,75.740189 
	C304.193970,82.768517 301.799011,88.472839 296.910065,93.286125 
	C291.539795,98.573250 291.038849,101.216400 293.858826,108.182411 
	C295.252655,111.625496 295.306671,115.326607 295.307159,119.006432 
	C295.310486,144.003616 295.392242,169.001007 295.298828,193.997772 
	C295.280975,198.783234 296.581207,202.560425 300.123108,205.998459 
	C306.661774,212.345367 306.209290,227.020752 299.683990,233.448318 
	C297.796417,235.307617 295.967987,237.226837 294.107330,239.113556 
	C291.925507,241.325958 289.475311,242.925232 286.171234,242.353317 
	C280.663422,241.399979 277.037292,244.079758 273.227295,247.805969 
	C268.080627,252.839478 266.116699,260.009125 260.795563,264.811096 
	C260.234406,265.317505 260.425232,266.710175 260.353577,267.697937 
	C259.677368,277.018555 255.983749,284.022552 246.721848,287.775208 
	C236.116394,292.072174 228.767044,291.146332 220.924713,283.006653 
	C217.795792,279.759094 214.354782,278.313416 209.887619,278.341858 
	C192.223633,278.454376 174.558548,278.396332 156.893860,278.384033 
	C153.837494,278.381897 150.879700,278.618469 148.223236,281.127747 
M221.391220,179.187119 
	C224.905807,183.289841 225.379883,188.823425 226.795471,193.560562 
	C228.105988,197.946106 229.527924,202.772964 231.071213,206.887695 
	C233.992157,214.675568 235.450363,223.005783 239.372330,230.446396 
	C240.553452,232.687164 242.986816,234.447388 242.393066,237.561371 
	C242.110245,239.044647 242.422150,240.602127 244.191895,241.261765 
	C245.992783,241.933014 246.860229,240.603226 248.000290,239.618347 
	C251.373291,236.704468 251.720901,231.707504 255.775879,229.110382 
	C258.991943,227.050537 260.311707,223.587219 259.670746,219.559326 
	C258.796783,214.067215 261.338928,209.188736 264.681427,205.723709 
	C269.450226,200.780136 270.676056,195.333817 270.666656,189.006500 
	C270.623810,160.189438 270.649933,131.372299 270.644318,102.555183 
	C270.644073,101.223869 270.689453,99.877090 270.509308,98.565567 
	C270.325653,97.228210 269.044037,96.063927 268.100647,96.862267 
	C265.209595,99.308792 261.440369,98.634895 258.412018,100.034882 
	C251.682739,103.145775 245.276337,106.651283 238.090149,109.071831 
	C230.563492,111.607071 222.501480,113.145103 215.494934,117.309181 
	C211.443115,119.717239 205.296021,119.964272 206.112457,127.107941 
	C206.197525,127.852280 205.192841,128.792099 204.565460,129.532471 
	C203.176666,131.171417 202.890686,132.846786 204.517075,134.389160 
	C205.683441,135.495255 205.734756,137.225403 206.528976,138.195114 
	C209.203903,141.461136 208.395935,145.916214 210.480438,149.059875 
	C212.895645,152.702240 213.620224,156.953766 214.938004,160.777618 
	C216.971451,166.677994 218.647797,172.712158 221.391220,179.187119 
M71.877441,210.396042 
	C72.038750,212.708969 72.210999,215.021194 72.356789,217.335098 
	C72.430458,218.504379 72.333183,219.893707 73.685555,220.301331 
	C79.426949,222.031952 83.693604,226.510513 88.759705,228.907776 
	C97.882660,233.224716 105.562424,239.809036 114.810547,243.805130 
	C119.569244,245.861328 126.756470,244.501587 127.191704,239.965912 
	C127.574150,235.980347 128.926468,232.512161 130.871674,229.494339 
	C133.196640,225.887375 133.296417,221.795334 134.812927,218.068512 
	C136.560318,213.774246 138.688065,209.480972 139.452759,204.983597 
	C140.226974,200.430283 142.263550,196.268768 143.692932,192.119797 
	C144.785553,188.948303 144.502411,185.151764 146.625412,182.461014 
	C149.577942,178.718887 150.039612,173.931763 151.216995,169.814835 
	C153.291290,162.561691 157.282150,156.295715 159.688049,149.302475 
	C160.202286,147.807709 161.089996,146.564270 159.683945,145.307236 
	C158.379303,144.140869 156.842911,144.248993 155.647263,145.470840 
	C154.536957,146.605453 153.021469,146.806488 151.818268,147.523026 
	C148.208817,149.672516 143.188919,150.239899 141.220673,154.204987 
	C139.058701,158.560349 135.549149,161.422958 132.340530,164.669067 
	C125.032791,172.062225 113.520500,172.865738 105.182869,166.563080 
	C103.358719,165.184143 101.511887,164.375534 99.252083,164.376877 
	C88.762665,164.383072 78.272171,164.453491 67.784401,164.318680 
	C64.162689,164.272125 63.235336,165.956543 63.311520,169.223373 
	C63.458992,175.546860 63.851578,181.926102 63.228333,188.191284 
	C62.358791,196.932449 64.449463,204.158524 71.877441,210.396042 
M180.499878,256.658875 
	C184.828613,256.659302 189.157394,256.671234 193.486084,256.657532 
	C199.812149,256.637543 206.150940,256.838348 212.460526,256.500641 
	C218.632843,256.170258 222.716599,251.425537 220.270401,247.168610 
	C215.921371,239.600296 214.152451,231.220749 211.091156,223.283905 
	C208.315598,216.087830 206.833878,208.407166 203.150742,201.462250 
	C201.998016,199.288651 199.667419,197.158905 199.849472,194.514847 
	C200.194412,189.505264 197.323410,185.339752 195.936630,181.028595 
	C193.241180,172.649170 190.315369,164.279633 187.581635,155.873901 
	C187.181351,154.643082 186.661484,153.699234 185.335327,153.563507 
	C184.079697,153.435043 182.485504,153.978821 182.660141,155.172699 
	C183.314972,159.649261 180.131973,162.957809 178.911880,166.717529 
	C177.507385,171.045532 177.182755,175.894897 174.367126,179.886154 
	C170.787811,184.959946 169.511917,191.253128 167.870789,196.987122 
	C166.652557,201.243546 164.428619,205.266815 163.738815,209.914642 
	C163.249802,213.209717 162.327759,217.445587 160.342224,220.371780 
	C157.662079,224.321640 157.516815,228.971649 155.856079,233.119095 
	C154.135986,237.414795 152.595993,241.812897 150.329102,245.902618 
	C148.670898,248.894226 148.850098,252.201965 149.795654,255.082870 
	C150.715881,257.886658 153.867249,256.558136 156.025787,256.597839 
	C163.848206,256.741669 171.674835,256.657043 180.499878,256.658875 
M154.889984,114.832146 
	C151.903854,112.278969 147.632111,111.815620 144.938522,108.849121 
	C141.952850,105.560951 137.803314,104.191147 133.980896,102.604904 
	C131.342743,101.510117 129.418091,98.839386 125.922394,99.302406 
	C115.856529,100.635696 108.054474,96.317963 101.740318,88.808823 
	C99.000473,85.550446 95.723969,84.006096 91.299545,84.285065 
	C85.829941,84.629936 80.321716,84.318291 74.831612,84.394089 
	C69.173912,84.472198 63.495274,89.706032 63.426750,95.352165 
	C63.259148,109.161072 63.401260,122.973473 63.327175,136.783981 
	C63.312363,139.545624 64.385010,140.685776 67.153671,140.664520 
	C76.304893,140.594208 85.457024,140.633804 94.608780,140.645325 
	C96.565323,140.647781 97.956085,140.318283 98.686890,137.982468 
	C101.408150,129.284729 118.146187,121.293945 127.148903,127.878113 
	C128.997391,129.229996 131.217773,128.975357 133.246567,127.711693 
	C138.478470,124.452919 144.163132,122.093765 149.659286,119.359627 
	C151.696289,118.346291 154.495087,117.709541 154.889984,114.832146 
z"/>
</svg>