<svg version="1.1" id="Layer_1" xmlns="http://www.w3.org/2000/svg" xmlns:xlink="http://www.w3.org/1999/xlink" x="0px" y="0px"
	 width="100%" viewBox="0 0 1301 1301" enable-background="new 0 0 1301 1301" xml:space="preserve">
<path fill="#FFFFFF" opacity="0.000000" stroke="none" 
	d="
M1.244962,1220.283203 
	C1.000000,841.645752 1.000000,463.291534 1.000000,84.468658 
	C2.676634,75.368446 4.787355,66.877449 8.499004,58.840656 
	C20.997688,31.777384 41.379436,13.668923 69.851418,4.766794 
	C75.242233,3.081285 80.782906,1.983577 86.713150,1.245319 
	C463.354248,1.000000 839.708496,1.000000 1216.531372,1.000000 
	C1218.949097,2.808372 1221.470703,1.914804 1223.701172,2.341733 
	C1249.490601,7.278197 1269.865601,20.654976 1285.297241,41.715126 
	C1293.582031,53.021584 1299.175415,65.539955 1301.754883,79.715790 
	C1302.000000,461.020905 1302.000000,842.041809 1302.000000,1223.531372 
	C1300.270508,1228.296753 1299.701782,1232.922974 1298.107788,1237.276001 
	C1285.994751,1270.355957 1262.590454,1290.978638 1228.889404,1300.356201 
	C1226.799805,1300.937744 1224.577148,1300.624878 1222.281250,1301.755371 
	C842.312439,1302.000000 462.624878,1302.000000 82.468658,1302.000000 
	C80.544250,1300.452515 78.534309,1301.117310 76.794777,1300.730835 
	C40.293343,1292.619995 11.129206,1264.034180 2.670959,1227.416382 
	C2.147044,1225.148193 2.340054,1222.769409 1.244962,1220.283203 
z"/>
<path fill="#fff" opacity="1.000000" stroke="none" 
	d="
M86.531342,1.000000 
	C87.592194,3.398469 85.828415,2.846773 84.546509,3.008900 
	C65.977768,5.357365 49.936832,13.057290 35.413250,24.846680 
	C25.564222,32.841549 18.398874,42.787785 12.411648,53.509148 
	C7.519688,62.269222 3.852661,71.833458 3.028781,82.112839 
	C2.940003,83.220490 2.607768,84.010780 1.356888,84.300331 
	C1.000000,57.402538 1.057665,30.804770 0.915953,4.208063 
	C0.900820,1.367867 1.579815,0.913762 4.275848,0.925796 
	C31.537693,1.047487 58.800293,1.000000 86.531342,1.000000 
z"/>
<path fill="#fff" opacity="1.000000" stroke="none" 
	d="
M1302.000000,79.531342 
	C1300.341309,80.888054 1300.236328,79.670898 1300.007568,78.555283 
	C1294.246826,50.464035 1278.351318,29.701698 1254.061035,15.000412 
	C1243.059326,8.341788 1231.168579,4.341811 1218.385986,3.001275 
	C1217.442505,2.902330 1216.911987,2.374458 1216.699463,1.358402 
	C1244.260254,1.000000 1271.520630,1.054763 1298.780273,0.917704 
	C1301.594482,0.903554 1302.090454,1.542292 1302.076294,4.263686 
	C1301.946533,29.196142 1302.000000,54.129551 1302.000000,79.531342 
z"/>
<path fill="#fff" opacity="1.000000" stroke="none" 
	d="
M1.000000,1220.468628 
	C4.871209,1220.677734 3.315163,1224.327393 3.762128,1226.240356 
	C10.470319,1254.950073 26.731203,1276.175781 52.584091,1290.196777 
	C61.560452,1295.064819 70.855476,1298.926636 81.113335,1300.087646 
	C81.647194,1300.148071 82.105072,1300.880249 82.299164,1301.649780 
	C56.069958,1302.000000 30.139595,1301.941284 4.210337,1302.083740 
	C1.375880,1302.099365 0.912219,1301.428467 0.925234,1298.727051 
	C1.050165,1272.797607 1.000000,1246.867310 1.000000,1220.468628 
z"/>
<path fill="#fff" opacity="1.000000" stroke="none" 
	d="
M1222.468628,1302.000000 
	C1221.105347,1300.332642 1222.333740,1300.206421 1223.449829,1300.013184 
	C1245.514526,1296.192993 1263.752686,1285.334351 1278.490723,1268.850342 
	C1289.458252,1256.583740 1296.699585,1242.116455 1299.952271,1225.846069 
	C1300.165405,1224.780273 1300.419189,1223.976685 1301.657593,1223.702637 
	C1302.000000,1248.930542 1301.938965,1273.861572 1302.084229,1298.791260 
	C1302.100708,1301.628662 1301.424438,1302.088013 1298.725952,1302.074585 
	C1273.463501,1301.948730 1248.200317,1302.000000 1222.468628,1302.000000 
z"/>
<path fill="#000000" opacity="1.000000" stroke="none" 
	d="
M1108.999756,1214.249756 
	C1085.676514,1214.367554 1062.853394,1214.573242 1040.030151,1214.577271 
	C1019.040100,1214.581055 998.024109,1213.735962 977.074463,1214.598999 
	C969.917358,1214.893921 968.200806,1212.160400 965.813110,1206.810425 
	C877.222839,1008.313721 788.485962,809.882629 699.765808,611.443909 
	C699.106445,609.968933 698.402588,608.513794 696.901672,607.091248 
	C696.901672,608.953979 696.901672,610.816772 696.901672,612.679504 
	C696.901672,811.161194 696.881897,1009.642822 697.016296,1208.124390 
	C697.019653,1213.025391 696.058594,1214.402954 690.896545,1214.386475 
	C625.903198,1214.178345 560.908875,1214.204834 495.915253,1214.354858 
	C491.731873,1214.364502 490.801453,1213.337402 490.802887,1209.207886 
	C490.910583,899.236511 490.910187,589.265137 490.807892,279.293823 
	C490.806519,275.128265 491.874542,274.143738 496.008881,274.148865 
	C561.166321,274.229736 626.324036,274.113647 691.481689,274.071503 
	C702.977173,274.064056 714.473572,274.279877 725.967834,274.185638 
	C728.906555,274.161560 730.354126,274.753693 729.923462,278.005310 
	C728.103271,291.747955 732.824158,303.819794 738.362610,316.173340 
	C821.777588,502.231689 904.921082,688.411743 988.029602,874.607300 
	C989.618958,878.168091 991.412048,879.475647 995.381775,879.361572 
	C1006.538208,879.040833 1017.716064,879.035217 1028.872314,879.359375 
	C1033.105591,879.482300 1034.004517,878.256531 1033.999390,874.145264 
	C1033.873657,775.487915 1033.901489,676.830261 1033.901489,578.172729 
	C1033.901489,478.848572 1033.934448,379.524384 1033.796875,280.200409 
	C1033.790527,275.607239 1034.552002,274.100433 1039.602539,274.116028 
	C1104.929199,274.317902 1170.256836,274.301605 1235.583740,274.135803 
	C1240.056396,274.124451 1241.005737,275.258392 1241.004150,279.617767 
	C1240.891724,589.422424 1240.889282,899.227173 1241.022949,1209.031860 
	C1241.024902,1213.650146 1239.666870,1214.359619 1235.489136,1214.344238 
	C1193.493164,1214.189209 1151.496460,1214.249878 1108.999756,1214.249756 
z"/>
<path fill="#000000" opacity="1.000000" stroke="none" 
	d="
M462.396667,188.708908 
	C462.811493,190.874420 462.895325,192.704849 462.895355,194.535278 
	C462.901154,471.010040 462.884308,747.484802 463.026520,1023.959473 
	C463.029205,1029.199829 461.688995,1030.411255 456.559845,1030.374512 
	C422.731384,1030.131592 388.899963,1030.182007 355.070465,1030.339844 
	C351.153290,1030.358154 349.786560,1029.774536 349.788635,1025.361816 
	C349.918243,746.887207 349.909302,468.412598 349.974243,189.473419 
	C351.816864,187.350662 354.055176,187.607269 356.196838,187.605606 
	C389.679871,187.579453 423.162903,187.580917 456.645935,187.602539 
	C458.467926,187.603714 460.327484,187.461731 462.396667,188.708908 
z"/>
<path fill="#010101" opacity="1.000000" stroke="none" 
	d="
M350.107178,188.341858 
	C254.796021,188.228424 159.968140,188.218033 65.140427,188.337051 
	C61.574451,188.341537 60.802723,187.377930 60.817867,183.935165 
	C60.957180,152.270798 60.955650,120.605316 60.822037,88.940887 
	C60.807091,85.399658 61.389416,84.146683 65.359833,84.148598 
	C296.347565,84.259918 527.335327,84.257751 758.323059,84.162292 
	C762.085449,84.160736 763.012634,85.114662 762.993835,88.855125 
	C762.834656,120.519318 762.813965,152.185211 763.013367,183.848938 
	C763.038879,187.907547 761.615051,188.322372 758.173950,188.319336 
	C660.179382,188.232529 562.184692,188.246002 463.741302,188.203613 
	C462.011719,188.697281 460.664124,188.474731 459.346222,188.474747 
	C423.094330,188.475220 386.842407,188.507858 350.107178,188.341858 
z"/>
<path fill="#2C2C2C" opacity="1.000000" stroke="none" 
	d="
M349.655396,188.451935 
	C362.420227,188.134079 375.216553,187.994415 388.012970,187.980713 
	C412.784332,187.954208 437.555786,187.998642 462.809875,188.088867 
	C463.240936,188.332245 463.189362,188.500427 462.952271,188.856293 
	C425.500549,189.039047 388.234283,189.034103 350.501770,189.018982 
	C350.035522,189.008820 349.686920,188.687042 349.655396,188.451935 
z"/>
</svg>