<?xml version="1.0" standalone="no"?>
<!DOCTYPE svg PUBLIC "-//W3C//DTD SVG 20010904//EN"
 "http://www.w3.org/TR/2001/REC-SVG-20010904/DTD/svg10.dtd">
<svg version="1.0" xmlns="http://www.w3.org/2000/svg"
 width="1000.000000pt" height="1000.000000pt" viewBox="0 0 1000.000000 1000.000000"
 preserveAspectRatio="xMidYMid meet">
<metadata>
Created by potrace 1.14, written by Peter Selinger 2001-2017
</metadata>
<g transform="translate(0.000000,1000.000000) scale(0.100000,-0.100000)"
fill="#000000" stroke="none">
<path d="M6297 8716 c-40 -15 -73 -39 -152 -111 -76 -69 -119 -79 -294 -68
-116 7 -144 6 -149 -5 -14 -39 82 -71 234 -79 94 -5 106 -4 157 20 32 14 87
54 125 91 85 79 128 95 210 78 74 -16 148 -62 238 -148 73 -70 124 -152 124
-201 0 -32 37 -31 52 1 36 80 -85 258 -247 361 -96 62 -225 88 -298 61z"/>
<path d="M6937 8503 c-3 -5 -5 -39 -6 -76 0 -87 -15 -138 -46 -165 -29 -25
-25 -42 9 -42 24 0 45 19 65 58 17 32 25 149 14 191 -9 34 -26 50 -36 34z"/>
<path d="M5655 8411 c-138 -51 -273 -168 -333 -289 -31 -64 -38 -88 -41 -153
-5 -114 16 -166 96 -246 45 -46 62 -69 58 -82 -9 -29 -48 -59 -80 -63 -24 -2
-30 -8 -30 -28 0 -40 45 -50 98 -22 51 27 67 28 67 3 0 -10 7 -24 15 -31 25
-20 45 5 45 56 0 38 -4 46 -25 56 -23 10 -25 15 -19 57 3 25 6 79 7 119 2 68
1 72 -19 72 -27 0 -34 -17 -34 -86 0 -30 -4 -54 -9 -54 -12 0 -41 41 -72 100
-31 61 -32 171 0 251 53 138 231 279 377 298 64 9 83 23 64 46 -17 21 -102 19
-165 -4z"/>
<path d="M7050 8288 c-49 -22 -102 -62 -116 -89 -20 -39 -18 -99 6 -166 31
-88 28 -103 -31 -141 -59 -39 -77 -71 -61 -107 12 -26 49 -47 65 -38 5 3 7 16
4 30 -3 19 4 30 40 56 79 56 88 95 48 219 -27 85 -24 107 16 144 36 33 68 46
123 53 43 5 52 10 54 29 3 21 0 22 -60 21 -35 0 -74 -5 -88 -11z"/>
<path d="M7154 8200 c-69 -15 -144 -82 -144 -129 0 -30 21 -26 51 10 l25 31
70 -69 c134 -133 147 -151 141 -195 -3 -22 -24 -67 -47 -103 -50 -77 -70 -138
-70 -216 0 -51 4 -63 29 -91 24 -27 36 -33 70 -33 51 0 92 34 71 59 -7 9 -20
16 -29 16 -57 0 -56 88 3 203 24 47 46 95 49 108 5 19 8 21 22 9 31 -25 75
-129 81 -188 5 -44 -1 -87 -26 -192 -27 -112 -31 -147 -26 -206 6 -80 6 -81
-64 -108 -59 -23 -224 -121 -326 -195 l-82 -58 -5 50 c-3 38 -11 56 -29 72
l-24 21 44 34 c119 95 201 289 190 454 -7 111 -48 119 -48 9 0 -84 -23 -171
-68 -256 -60 -116 -157 -196 -290 -241 -57 -20 -77 -23 -91 -14 -10 6 -25 9
-33 6 -16 -6 -41 -102 -38 -146 3 -44 0 -48 -15 -22 -8 14 -14 40 -15 58 0 26
-4 33 -17 30 -14 -3 -18 -14 -18 -53 1 -28 4 -57 8 -66 6 -13 -21 -30 -139
-91 -169 -85 -176 -93 -154 -184 13 -52 12 -55 -14 -94 l-27 -41 -21 26 c-23
30 -37 86 -38 154 0 38 -5 49 -40 81 -44 40 -42 48 13 69 15 6 33 22 39 37 10
22 10 28 -5 39 -19 14 -70 11 -127 -7 -19 -6 -57 -10 -83 -9 -26 1 -64 -4 -84
-11 l-36 -13 -44 50 c-51 58 -84 117 -107 194 -9 30 -16 56 -16 57 0 2 29 12
65 23 94 29 263 59 391 70 154 12 194 37 101 62 -73 19 -372 -24 -515 -75 -52
-19 -53 -16 -50 74 3 53 0 65 -14 68 -24 5 -39 -31 -47 -111 l-6 -69 -40 -16
c-86 -33 -315 -199 -315 -228 0 -8 2 -14 5 -14 3 0 42 24 88 53 114 73 187
114 235 131 l40 14 7 -44 c10 -67 69 -176 122 -225 31 -29 42 -44 33 -47 -8
-3 -35 -25 -61 -49 -40 -38 -52 -43 -92 -43 -30 0 -73 -12 -124 -33 -43 -19
-114 -49 -158 -68 -95 -40 -210 -113 -246 -157 -39 -45 -84 -161 -118 -302
-31 -131 -80 -248 -241 -575 -214 -437 -216 -443 -225 -884 -3 -151 -10 -318
-15 -371 -15 -152 -92 -483 -138 -591 -36 -84 -114 -203 -184 -281 -38 -42
-75 -93 -83 -112 -23 -54 -19 -137 11 -222 l25 -75 -45 -120 c-54 -142 -57
-179 -21 -300 28 -97 34 -219 11 -241 -8 -7 -35 -29 -60 -48 -35 -27 -45 -41
-43 -60 2 -22 6 -25 43 -24 26 0 59 11 89 28 62 37 84 85 85 185 0 70 1 75 33
105 19 17 62 46 96 65 75 40 129 86 143 120 5 14 20 80 34 146 13 66 32 145
43 175 11 30 31 98 45 151 14 52 39 127 55 166 43 105 108 309 121 383 14 76
6 159 -21 214 -10 22 -19 57 -19 78 0 21 32 165 70 320 93 369 201 857 207
936 5 57 4 62 -14 62 -28 0 -37 -14 -61 -95 -68 -232 -302 -1181 -302 -1227 0
-19 12 -57 27 -84 23 -41 27 -60 26 -121 -1 -61 -11 -99 -64 -250 -130 -371
-179 -535 -210 -697 -24 -133 -34 -147 -119 -191 -25 -13 -62 -35 -83 -49 -21
-15 -42 -24 -46 -21 -5 2 -13 31 -20 63 -10 51 -9 66 8 118 l19 59 1 -67 c1
-37 6 -78 13 -92 14 -33 45 -43 67 -22 13 14 16 38 15 139 -1 112 -4 132 -38
242 -53 169 -50 195 37 283 111 114 205 278 250 437 88 313 117 517 117 821 0
233 16 414 45 501 14 39 80 186 149 325 120 244 246 526 246 551 1 6 7 -2 14
-19 19 -42 50 -48 128 -25 78 24 216 59 275 70 39 8 43 7 37 -8 -39 -89 -77
-204 -81 -245 -7 -66 16 -95 94 -125 32 -12 66 -28 75 -35 21 -16 29 -68 18
-127 -19 -99 -49 -415 -55 -569 -3 -90 -13 -191 -20 -225 -8 -33 -19 -102 -25
-152 -6 -60 -21 -121 -41 -170 -17 -43 -42 -112 -56 -153 -17 -50 -49 -107
-93 -170 -86 -122 -101 -148 -144 -246 -46 -105 -54 -163 -66 -494 -9 -254
-25 -428 -64 -680 -8 -52 -18 -210 -21 -350 -6 -250 -7 -256 -32 -300 -14 -25
-39 -71 -56 -103 -16 -32 -46 -71 -65 -85 -114 -87 -152 -137 -152 -203 0 -26
-3 -30 -17 -24 -101 43 -153 43 -286 0 -43 -14 -90 -25 -106 -25 -59 0 -231
67 -231 90 0 5 13 31 30 57 34 53 37 75 14 94 -17 14 -32 1 -91 -77 l-22 -29
-25 27 c-14 16 -29 51 -36 83 -16 75 -28 73 -80 -15 -39 -65 -69 -100 -85
-100 -7 0 -30 17 -52 39 l-41 38 20 21 c14 13 18 26 13 41 -8 27 -33 27 -62
-1 l-23 -22 4 30 c10 57 16 203 10 218 -9 24 -43 20 -48 -6 -3 -13 -11 -73
-20 -134 -12 -92 -20 -121 -47 -165 -32 -54 -77 -109 -89 -109 -3 0 -13 13
-23 29 -12 21 -15 41 -11 74 12 84 -35 69 -71 -23 -26 -66 -42 -81 -62 -55 -7
11 -16 30 -19 42 -7 25 -63 47 -104 41 -71 -10 -84 -308 -14 -308 26 0 62 46
80 104 14 44 21 55 33 50 42 -18 66 -15 90 10 l24 25 25 -19 c38 -31 78 -26
118 14 l34 34 0 -27 c0 -44 11 -70 32 -76 31 -10 48 13 48 64 0 39 4 48 24 57
22 10 28 8 56 -27 24 -31 38 -39 63 -39 41 0 92 31 115 70 19 30 32 30 32 0 0
-29 39 -70 66 -70 15 0 45 -17 72 -39 78 -64 166 -103 247 -109 59 -3 84 1
163 27 113 38 139 38 211 5 53 -25 59 -26 114 -15 124 26 289 109 522 264 217
143 360 270 532 471 97 114 133 174 133 219 0 39 -23 34 -52 -11 -44 -66 -242
-274 -353 -371 -135 -117 -209 -174 -310 -235 l-80 -48 96 98 c239 248 252
296 166 624 -70 264 -81 344 -74 535 7 211 23 274 193 775 187 555 235 732
263 985 19 166 32 637 25 945 -6 262 -4 321 11 420 12 81 16 143 11 211 -6 90
-5 97 17 116 12 11 29 23 38 26 25 8 94 -27 118 -62 26 -36 37 -39 46 -12 10
32 -20 88 -63 116 -88 58 -150 41 -245 -69 -33 -39 -63 -72 -66 -74 -14 -5 13
244 35 325 3 13 93 61 175 93 33 13 56 17 66 12 11 -7 12 -11 4 -16 -23 -15
-9 -46 40 -87 l51 -42 -7 -62 c-8 -76 10 -128 54 -152 l29 -17 -34 -38 c-51
-57 -59 -118 -14 -118 11 0 20 4 20 8 0 10 47 60 113 121 75 69 91 114 73 207
l-7 42 73 33 c162 74 461 235 519 280 l36 29 7 -41 c8 -49 5 -54 -45 -79 -39
-20 -48 -41 -29 -70 7 -12 16 -12 51 -3 53 14 81 4 132 -45 43 -42 46 -55 15
-76 -52 -36 -260 -254 -333 -351 -44 -57 -85 -104 -90 -105 -20 0 -35 24 -35
56 0 102 -93 211 -202 238 -58 13 -73 -17 -39 -76 11 -18 25 -53 31 -77 18
-68 1 -111 -95 -234 -47 -59 -101 -136 -120 -172 -85 -150 -125 -327 -125
-542 0 -170 18 -266 99 -543 64 -216 74 -339 58 -725 -8 -198 1 -353 28 -529
9 -55 22 -144 31 -196 21 -137 109 -496 155 -632 54 -161 132 -329 246 -526
53 -92 124 -225 159 -296 52 -105 64 -137 64 -178 0 -87 -34 -121 -160 -164
-81 -28 -263 -23 -440 11 -181 36 -392 45 -475 20 -72 -21 -143 -56 -258 -128
-85 -54 -176 -89 -374 -147 -80 -23 -95 -36 -67 -57 41 -32 275 12 397 74 29
14 78 43 110 65 191 130 308 148 607 97 159 -27 351 -40 432 -29 78 11 190 57
239 99 38 31 69 100 69 152 0 67 -83 247 -242 524 -167 291 -239 473 -326 820
-56 221 -73 314 -116 620 -9 61 -20 137 -26 170 -7 46 -5 111 11 275 31 325
19 457 -71 774 -66 230 -74 289 -67 498 7 266 49 386 210 605 104 141 120 178
115 257 -3 33 -9 70 -13 81 l-8 20 23 -20 c40 -35 61 -95 54 -161 -3 -39 -1
-67 8 -84 15 -28 55 -39 64 -17 4 12 12 13 39 4 47 -14 80 3 138 71 26 31 98
117 160 190 l112 133 7 -33 c3 -18 17 -41 30 -51 55 -44 76 -64 105 -103 57
-73 58 -77 29 -220 -14 -71 -28 -157 -32 -191 l-7 -63 -41 0 c-22 0 -98 10
-168 21 -107 18 -148 20 -251 14 -68 -4 -130 -11 -137 -15 -16 -10 -19 -66 -7
-120 l7 -35 -61 -24 c-60 -23 -151 -88 -197 -140 -13 -14 -38 -55 -55 -91 -31
-62 -32 -70 -32 -190 0 -112 2 -130 24 -172 22 -43 47 -66 59 -54 2 3 -1 35
-8 72 -24 126 -1 281 53 362 44 66 165 142 250 157 53 10 63 39 37 101 -33 76
-36 74 108 74 86 0 160 -7 230 -20 119 -23 220 -26 246 -7 15 11 19 30 21 89
4 93 25 257 35 263 4 2 30 -44 57 -104 50 -108 50 -108 132 -165 44 -32 81
-61 81 -66 0 -4 -16 -41 -35 -82 -50 -106 -69 -215 -62 -363 4 -66 13 -147 22
-179 31 -118 100 -222 184 -276 l23 -16 -32 -119 c-18 -66 -66 -217 -107 -335
-41 -118 -95 -273 -119 -344 -25 -71 -56 -186 -70 -255 -23 -112 -25 -143 -21
-276 4 -134 7 -160 35 -245 33 -98 64 -160 82 -160 15 0 12 37 -11 120 -13 47
-23 120 -26 195 -9 192 29 355 175 764 l70 195 6 -80 c4 -43 11 -106 16 -139
5 -33 19 -118 29 -190 20 -131 54 -283 109 -495 17 -63 44 -185 62 -270 24
-121 43 -183 87 -285 68 -160 102 -228 161 -325 81 -133 416 -810 479 -970 70
-175 93 -287 74 -357 -28 -104 -113 -122 -646 -139 -255 -7 -374 1 -710 51
-394 60 -463 67 -711 72 -417 10 -715 -33 -1339 -192 -563 -144 -948 -193
-1410 -182 -481 12 -729 67 -1230 273 -266 110 -353 155 -525 269 -388 258
-575 500 -625 810 -28 168 -12 334 51 535 67 215 188 425 498 863 161 229 204
299 259 428 66 155 80 253 57 407 -18 126 -38 171 -110 243 -58 59 -84 75
-223 143 -133 64 -166 84 -213 132 l-55 57 48 26 c144 80 307 204 450 345
l101 100 139 -3 c97 -1 160 3 213 14 100 21 366 107 429 139 110 56 297 231
376 352 140 214 192 378 202 631 7 169 -11 289 -62 427 l-34 90 54 116 c99
214 131 343 122 486 -6 102 -32 160 -93 212 -25 20 -66 45 -92 54 -139 50
-367 -9 -620 -160 l-103 -61 -62 17 c-49 13 -105 17 -267 17 -180 0 -216 -3
-293 -22 -207 -53 -398 -158 -539 -296 -182 -177 -298 -392 -344 -634 -22
-121 -15 -394 14 -503 43 -163 108 -295 208 -426 46 -61 53 -75 45 -96 -14
-36 -59 -253 -72 -347 -12 -85 -8 -340 6 -374 6 -14 -5 -23 -58 -47 -75 -34
-206 -70 -255 -70 l-34 0 31 39 c29 37 33 39 61 28 23 -9 33 -8 42 1 9 9 6 18
-15 40 -36 38 -21 54 33 36 71 -25 94 5 35 44 -46 29 -47 54 -2 45 57 -13 91
-9 95 9 3 17 -7 22 -70 33 -35 5 -38 8 -38 41 0 82 -61 131 -146 118 -24 -3
-44 -2 -44 2 0 5 12 27 25 49 27 43 33 85 13 85 -7 0 -31 -11 -53 -24 l-40
-25 -21 26 c-27 35 -54 25 -55 -19 -3 -66 -7 -77 -43 -119 -40 -47 -43 -60
-21 -79 13 -11 9 -19 -30 -62 -62 -69 -108 -166 -113 -239 -3 -33 -8 -62 -13
-65 -16 -10 -9 -43 12 -58 21 -15 20 -16 -36 -43 -67 -32 -86 -54 -69 -80 9
-14 25 -18 80 -17 57 0 79 6 129 31 52 27 74 32 160 37 106 5 224 32 396 90
95 32 105 33 113 18 5 -9 40 -48 77 -85 59 -58 87 -77 187 -123 180 -83 264
-134 291 -177 7 -10 19 -66 28 -125 13 -90 14 -124 4 -216 -17 -154 -60 -250
-207 -456 -197 -277 -389 -581 -469 -740 -105 -209 -175 -475 -175 -662 0
-147 46 -340 111 -471 147 -292 559 -626 999 -807 481 -199 615 -243 861 -284
220 -37 343 -46 605 -46 237 0 410 10 619 35 279 35 388 56 785 155 803 201
1164 227 1830 129 492 -71 494 -72 820 -65 469 9 611 29 692 96 57 47 78 101
78 201 0 111 -18 179 -91 362 -71 174 -352 741 -475 957 -126 221 -222 457
-264 645 -16 72 -52 220 -80 330 -28 110 -60 259 -71 330 -11 72 -26 168 -34
215 -8 47 -17 132 -20 190 -4 58 -11 134 -16 169 -8 55 -6 79 17 180 l27 116
257 1 c361 3 354 0 505 183 33 41 70 85 83 100 112 126 188 266 176 319 -17
69 -101 191 -239 346 -153 173 -209 250 -268 372 -24 50 -65 123 -91 163 -51
78 -106 197 -106 231 0 11 -17 39 -39 63 -21 23 -52 67 -70 98 -42 75 -128
159 -203 199 -94 49 -92 44 -51 106 32 48 34 56 24 81 -10 23 -92 89 -196 158
-13 9 -13 16 0 65 27 105 47 254 40 310 -12 99 -83 225 -156 275 -20 15 -49
44 -64 65 -15 21 -65 72 -111 112 -46 40 -84 76 -84 81 0 15 92 6 130 -13 81
-41 98 -6 20 41 -50 30 -99 39 -146 29z m-3644 -438 c0 -26 -14 -94 -31 -152
-17 -58 -36 -123 -41 -145 -6 -22 -12 -41 -13 -43 -1 -1 -40 35 -86 80 -46 46
-112 102 -146 125 -61 40 -62 41 -40 56 68 44 285 126 335 127 20 0 22 -5 22
-48z m-446 -454 c-11 -18 -31 -6 -47 27 -24 51 -21 53 18 15 19 -18 32 -37 29
-42z m-464 -6 l40 -62 -34 0 c-37 0 -35 -4 -51 95 -8 47 -7 47 45 -33z m-367
-98 c6 -30 5 -31 -41 -42 -26 -6 -48 -9 -50 -7 -1 1 12 42 30 90 l33 87 11
-49 c6 -26 13 -62 17 -79z m-418 59 c-7 -28 -19 -85 -26 -127 l-13 -76 -39
-11 c-80 -21 -83 -14 -31 86 40 78 113 189 120 182 1 -1 -4 -25 -11 -54z
m5778 -163 c26 -19 46 -38 47 -43 0 -4 -11 -24 -24 -45 -54 -82 -41 -115 68
-171 89 -46 148 -100 196 -180 22 -37 56 -82 75 -101 20 -19 35 -44 35 -56 0
-44 52 -166 105 -247 125 -194 143 -254 175 -607 11 -118 22 -245 26 -282 6
-71 24 -102 46 -80 20 20 22 242 4 426 -9 93 -15 171 -13 172 1 2 17 -18 34
-44 17 -26 67 -87 112 -137 92 -101 198 -246 207 -282 4 -12 4 -34 0 -46 -9
-39 -98 -167 -171 -247 -37 -41 -91 -104 -120 -140 -38 -48 -63 -69 -91 -79
-55 -17 -490 -27 -569 -12 -72 13 -115 43 -162 107 -59 84 -78 165 -78 344 0
149 2 159 34 255 18 55 36 104 40 108 4 4 36 -13 71 -39 87 -64 258 -174 271
-174 22 0 20 32 -5 64 -14 19 -94 81 -177 138 -333 228 -314 212 -340 269
-120 263 -184 368 -266 437 l-45 39 26 74 c20 59 23 82 17 112 -11 47 -53 103
-98 129 -32 20 -33 21 -17 39 37 41 308 209 387 240 67 26 85 43 98 91 10 39
10 39 33 21 13 -10 44 -34 69 -53z m-4384 -162 l-42 -83 -18 75 c-10 41 -18
76 -19 77 0 3 52 10 88 12 l32 1 -41 -82z m3631 18 c-16 -15 -202 -116 -214
-116 -4 0 -6 12 -4 27 3 25 9 29 73 43 39 9 88 26 110 38 48 25 54 27 35 8z
m-4013 -100 c19 -48 33 -95 31 -104 -4 -20 -167 -56 -173 -38 -7 22 -45 210
-42 212 7 7 96 22 121 21 27 -2 31 -9 63 -91z m-503 -112 c10 -58 16 -108 13
-111 -6 -5 -219 -54 -223 -51 -5 7 -24 150 -24 187 l0 40 78 16 c42 9 82 18
87 20 6 2 19 4 31 4 19 1 23 -9 38 -105z m-554 -50 c0 -19 5 -66 11 -105 7
-38 9 -72 6 -75 -3 -4 -40 -14 -82 -24 -93 -22 -90 -26 -90 115 l0 99 55 12
c95 20 100 19 100 -22z m1609 -156 c-15 -94 -43 -189 -59 -197 -8 -5 -41 -11
-74 -14 l-58 -6 6 87 c10 123 25 148 101 165 97 23 93 25 84 -35z m2197 -35
c-4 -22 -16 -44 -29 -53 -96 -66 -498 -446 -520 -492 -21 -42 -21 -39 2 74 37
179 72 247 157 304 69 46 363 202 383 203 10 1 12 -8 7 -36z m-2686 -32 c0
-23 -97 -144 -109 -137 -9 6 -35 115 -29 121 5 5 109 33 126 34 6 1 12 -8 12
-18z m-491 -138 c27 -104 33 -134 26 -141 -10 -10 -158 -41 -168 -35 -9 6 -77
150 -77 164 0 5 10 9 23 9 12 1 56 9 97 19 41 11 78 19 82 20 4 1 12 -16 17
-36z m3154 -47 c-7 -83 1 -114 31 -122 30 -7 72 14 116 60 19 20 38 36 43 36
9 0 0 -91 -20 -195 -13 -66 -16 -183 -18 -650 -2 -585 -6 -668 -46 -895 -31
-180 -62 -290 -184 -660 -152 -461 -202 -637 -220 -775 -33 -252 -11 -446 87
-775 41 -134 43 -223 9 -294 -45 -92 -329 -356 -573 -534 -16 -12 -18 -10 -18
23 0 29 8 42 42 73 110 98 144 140 193 238 l50 99 6 285 c4 157 12 306 18 333
22 93 61 444 61 551 0 118 14 341 30 471 13 101 71 220 176 362 42 56 83 123
95 158 12 33 39 106 60 162 26 68 42 132 49 195 6 51 18 125 26 163 9 39 20
158 24 265 10 206 24 379 40 469 6 30 10 87 10 127 0 64 -3 76 -27 104 -15 18
-56 47 -92 64 -61 30 -66 34 -63 62 3 25 38 122 82 230 18 41 6 103 -22 113
-33 12 -195 -17 -356 -65 -12 -3 40 54 120 134 126 123 266 252 273 252 2 0 0
-29 -2 -64z m-3655 -103 c17 -43 33 -85 37 -94 4 -12 -5 -20 -40 -33 -55 -22
-59 -20 -114 72 -60 100 -60 99 -9 112 23 6 48 13 53 15 34 12 44 3 73 -72z
m1270 -139 c-18 -25 -40 -50 -49 -55 -16 -8 -16 -5 -1 41 15 48 22 54 70 59 8
0 -1 -19 -20 -45z m-728 -118 c0 -3 -4 -8 -10 -11 -5 -3 -10 -1 -10 4 0 6 5
11 10 11 6 0 10 -2 10 -4z m-361 -90 c10 -12 8 -13 -8 -9 -12 3 -21 9 -21 14
0 14 16 11 29 -5z m-227 -151 c51 -34 207 -112 241 -120 15 -4 27 -11 27 -15
0 -7 -71 -69 -215 -186 -27 -23 -83 -62 -122 -87 l-73 -47 0 88 c0 99 24 326
41 389 l12 43 26 -20 c14 -12 43 -32 63 -45z m-737 -244 c-7 -23 -25 -29 -25
-8 0 14 21 39 28 33 2 -3 1 -14 -3 -25z m24 -247 c-49 -50 -64 -51 -26 0 42
54 60 71 65 56 2 -6 -15 -32 -39 -56z"/>
<path d="M5790 7724 c-11 -28 -14 -143 -4 -168 9 -24 51 -20 65 6 11 20 13 19
30 -26 39 -105 108 -157 208 -159 31 0 63 3 71 9 8 5 34 9 57 9 l41 0 -13 -30
c-7 -16 -18 -42 -25 -58 -18 -38 -2 -56 35 -39 14 7 34 12 45 12 10 0 26 7 35
16 15 15 17 15 29 -1 7 -10 11 -28 8 -41 -3 -18 1 -24 21 -29 32 -9 47 0 47
27 0 53 83 130 167 154 50 14 56 14 80 -1 23 -15 25 -22 21 -65 -5 -46 -67
-198 -96 -232 -24 -29 -50 -21 -77 22 -47 74 -91 47 -155 -93 -35 -78 -38
-119 -10 -147 39 -39 68 -21 68 40 -1 27 8 64 21 91 l22 46 31 -28 c34 -32 70
-37 121 -15 25 10 42 30 71 85 101 192 102 306 4 357 -60 31 -183 -11 -262
-89 -36 -37 -45 -42 -49 -27 -5 19 -56 33 -72 20 -7 -6 -11 8 -10 43 0 42 -3
52 -18 55 -10 2 -27 -4 -37 -13 -26 -24 -53 -7 -96 61 -20 30 -41 53 -47 51
-21 -6 -19 -51 5 -98 l23 -45 -49 10 c-38 7 -60 20 -97 55 -41 40 -51 58 -74
136 -15 50 -29 96 -31 103 -6 21 -33 13 -48 -15 l-15 -28 -1 33 c0 40 -26 44
-40 6z"/>
<path d="M6965 7508 c-2 -7 -5 -45 -8 -85 -6 -96 -47 -186 -111 -239 -51 -43
-58 -64 -21 -64 61 0 154 129 176 244 12 65 2 156 -17 156 -8 0 -16 -6 -19
-12z"/>
<path d="M7150 7422 c0 -23 40 -62 63 -62 27 0 20 23 -17 53 -41 32 -46 33
-46 9z"/>
<path d="M6740 7093 c-35 -14 -27 -58 8 -46 18 6 42 32 42 45 0 9 -27 9 -50 1z"/>
<path d="M4074 6307 c-113 -44 -163 -157 -115 -263 57 -125 206 -160 308 -71
45 39 63 82 63 147 0 137 -133 234 -256 187z"/>
<path d="M3728 5810 c-56 -43 -41 -132 27 -164 45 -21 79 -15 101 19 23 35 21
100 -3 133 -27 36 -88 42 -125 12z"/>
<path d="M6346 4228 c-8 -13 -19 -67 -25 -120 -22 -190 -11 -285 40 -339 33
-36 72 -37 77 -2 2 13 13 24 27 27 38 10 58 102 34 163 -16 44 -49 73 -81 73
l-29 0 7 95 c5 70 3 99 -6 110 -17 21 -27 19 -44 -7z"/>
<path d="M2831 2510 c-249 -34 -614 -241 -839 -474 -55 -56 -73 -81 -70 -98 7
-49 74 -29 203 62 117 83 215 140 344 199 175 81 257 104 379 105 101 1 104 0
127 -26 34 -40 49 -122 35 -199 -14 -78 -39 -144 -140 -375 -44 -100 -80 -186
-80 -191 0 -16 -104 -114 -128 -120 -52 -13 -91 67 -123 248 -32 183 -37 201
-57 197 -29 -5 -45 -58 -50 -158 -13 -288 124 -474 287 -390 117 59 313 360
404 620 74 211 93 387 50 465 -61 114 -173 158 -342 135z"/>
<path d="M7232 2288 c-14 -14 4 -63 59 -162 77 -138 203 -255 292 -271 20 -4
37 -10 37 -14 0 -3 -18 -33 -40 -66 -22 -33 -40 -68 -40 -78 0 -25 44 -67 71
-67 34 0 85 65 129 165 40 93 50 151 28 173 -18 18 -57 14 -85 -8 -78 -61
-214 22 -343 211 -33 48 -59 93 -58 99 4 17 -37 31 -50 18z"/>
<path d="M3874 1955 c-9 -22 9 -37 37 -33 16 2 24 10 24 23 0 26 -52 35 -61
10z"/>
<path d="M3356 1864 c-9 -8 -16 -19 -16 -23 0 -17 30 -32 50 -26 24 8 28 50 4
59 -21 8 -20 8 -38 -10z"/>
</g>
</svg>
